<?xml version="1.0" standalone="no"?>
<!DOCTYPE svg PUBLIC "-//W3C//DTD SVG 20010904//EN"
 "http://www.w3.org/TR/2001/REC-SVG-20010904/DTD/svg10.dtd">
<svg version="1.0" xmlns="http://www.w3.org/2000/svg"
 width="50px" height="39px" viewBox="0 0 512.000000 512.000000"
 preserveAspectRatio="xMidYMid meet">

<g transform="translate(0.000000,512.000000) scale(0.100000,-0.100000)"
fill="#000000" stroke="none">
<path d="M2800 4498 c-114 -81 -256 -148 -424 -197 -224 -67 -356 -138 -449
-241 -47 -53 -101 -151 -112 -205 l-7 -30 20 30 c10 17 41 67 67 113 27 46 65
97 86 113 70 55 221 121 448 196 124 40 244 85 266 100 l40 26 -30 -33 c-36
-38 -64 -53 -130 -69 -210 -52 -422 -214 -550 -421 -21 -34 1 -16 96 81 250
254 445 337 834 358 99 6 176 15 203 25 23 8 42 13 42 11 0 -11 -81 -44 -148
-60 -40 -9 -74 -20 -77 -24 -2 -4 35 -2 83 5 48 7 136 20 196 28 60 9 111 14
114 12 5 -6 -118 -69 -187 -95 -26 -11 -100 -27 -163 -35 -316 -44 -538 -152
-660 -320 -45 -63 -32 -65 30 -5 94 92 200 154 344 202 146 49 218 59 433 58
176 0 222 -4 385 -31 181 -31 348 -41 419 -25 91 20 -33 -44 -173 -89 l-101
-33 -88 18 c-181 36 -367 34 -522 -8 -69 -18 -219 -85 -229 -102 -9 -15 -12
-15 85 17 142 48 207 57 419 56 172 0 210 -3 322 -27 70 -15 211 -54 313 -88
210 -68 296 -89 373 -89 62 0 61 -8 -11 -49 -76 -43 -218 -88 -323 -102 l-91
-12 -89 36 c-107 43 -228 79 -349 103 -111 22 -428 27 -460 7 -16 -10 3 -12
110 -13 429 -1 839 -171 1195 -494 89 -81 189 -152 228 -162 12 -4 22 -11 22
-16 0 -7 -40 -9 -113 -6 -131 5 -128 3 -337 148 -69 47 -132 90 -140 94 -50
25 231 -189 429 -328 68 -47 118 -86 112 -86 -17 0 -193 67 -279 106 -41 19
-77 34 -81 34 -3 0 33 -39 81 -87 47 -49 110 -124 138 -168 47 -73 81 -139
230 -450 26 -55 64 -124 84 -154 20 -30 35 -56 33 -58 -3 -2 -38 19 -78 46
-69 46 -102 52 -66 13 24 -26 35 -62 91 -286 50 -201 51 -208 27 -175 -74 97
-162 172 -176 150 -3 -6 -1 -31 5 -56 38 -171 179 -441 300 -575 39 -44 30
-25 -31 65 -78 114 -171 323 -194 435 l-7 35 32 -30 c17 -16 64 -73 103 -125
75 -101 127 -164 127 -155 0 3 -11 27 -24 53 -30 60 -65 184 -111 390 -20 90
-39 170 -42 178 -7 18 -3 18 55 -5 45 -18 184 -51 214 -51 6 0 -6 14 -29 30
-89 66 -205 232 -356 511 -52 97 -113 205 -135 240 -23 35 -39 65 -38 67 2 1
39 -7 82 -19 91 -26 254 -33 275 -11 11 10 7 12 -17 12 -59 0 -126 29 -235
101 -60 40 -108 73 -107 75 2 1 35 -5 73 -13 139 -30 292 -3 386 66 l42 30
-49 -5 c-142 -17 -339 78 -621 296 -70 55 -159 117 -198 137 l-70 37 130 23
c162 30 229 61 396 184 68 50 137 98 152 106 51 26 21 26 -70 -1 -180 -52
-327 -58 -463 -17 -36 10 -128 38 -205 60 -142 42 -163 51 -129 51 38 1 157
49 220 90 63 41 162 139 185 183 12 21 12 21 -12 4 -48 -35 -115 -59 -209 -74
-93 -15 -99 -15 -345 15 -138 17 -287 32 -332 34 -44 2 -79 5 -77 7 2 2 37 19
78 37 118 51 217 128 252 196 l14 28 -64 -35 c-56 -32 -232 -85 -275 -85 -10
0 0 14 27 36 23 20 52 54 63 75 l19 39 -62 -34 c-98 -53 -137 -61 -508 -102
l-55 -6 36 39 c57 60 150 185 138 182 -2 0 -42 -28 -89 -61z"/>
<path d="M2496 4511 c-27 -30 -142 -86 -288 -142 -73 -27 -153 -62 -178 -76
l-45 -26 48 51 c26 28 47 56 47 61 0 13 -128 -79 -193 -139 -28 -25 -72 -74
-98 -109 -27 -35 -49 -57 -49 -49 0 14 39 77 81 132 l23 29 -24 -13 c-82 -44
-172 -165 -216 -290 -15 -44 -33 -85 -40 -91 -22 -18 -30 39 -12 88 9 24 12
43 9 43 -15 0 -59 -57 -94 -120 -51 -93 -86 -121 -227 -184 -132 -59 -156 -78
-221 -178 -31 -48 -31 -48 -86 -48 -45 0 -75 -9 -156 -46 -78 -36 -117 -47
-181 -54 -123 -13 -312 -85 -423 -162 -54 -36 -57 -72 -13 -128 16 -20 34 -49
39 -64 8 -18 18 -26 36 -26 26 0 28 -5 40 -90 11 -89 67 -168 143 -206 1 0 6
-36 12 -80 7 -59 20 -100 51 -162 22 -46 42 -82 44 -80 1 2 -3 36 -10 77 -15
83 -11 127 13 159 17 21 17 21 20 -23 1 -24 9 -64 16 -88 24 -79 136 -250 153
-233 3 3 1 11 -5 18 -20 25 -52 163 -52 228 0 80 14 135 46 178 29 37 44 40
69 12 10 -11 26 -20 35 -20 17 0 71 -103 86 -163 4 -19 11 -26 21 -23 10 4 24
-15 48 -67 18 -39 36 -87 40 -105 4 -18 10 -30 15 -27 16 10 40 -118 40 -216
0 -62 -2 -68 -27 -84 -16 -10 -71 -63 -125 -119 l-96 -100 -12 43 c-6 24 -12
72 -13 106 -2 73 -15 72 -44 -3 -14 -37 -18 -76 -18 -180 l0 -133 -22 28 c-33
40 -56 117 -57 189 -1 58 -2 61 -18 47 -25 -22 -41 -79 -42 -143 0 -43 7 -69
33 -118 l32 -63 -21 -79 c-22 -87 -26 -154 -10 -195 6 -15 30 -51 55 -82 25
-30 48 -66 51 -80 9 -33 24 -10 24 36 l0 34 21 -19 c12 -10 30 -38 41 -61 16
-35 17 -48 7 -93 -6 -28 -8 -54 -5 -57 8 -8 43 73 51 120 4 20 11 39 15 42 4
2 26 -21 48 -51 31 -41 43 -69 48 -107 5 -39 9 -47 15 -32 16 41 9 110 -16
163 -14 30 -25 61 -25 70 0 13 2 13 18 -1 10 -10 23 -17 29 -17 6 0 16 -7 23
-15 22 -27 22 -9 1 34 -27 52 -26 54 7 37 15 -8 46 -18 67 -22 22 -4 53 -17
68 -30 16 -13 34 -24 40 -24 7 0 0 10 -15 23 -34 28 -48 65 -48 125 l1 47 25
-47 c13 -27 28 -48 32 -48 4 0 5 28 4 61 -2 34 -1 81 3 106 l6 44 30 -40 c16
-23 33 -41 38 -41 5 0 11 21 15 48 7 51 37 109 61 119 22 8 48 -19 84 -87 l31
-58 -22 -54 c-31 -76 -29 -205 6 -360 29 -131 32 -211 11 -308 -7 -36 -12 -66
-11 -68 2 -1 14 26 27 60 31 82 36 207 15 358 -17 118 -19 227 -7 270 6 22 11
14 39 -58 18 -45 37 -99 42 -120 8 -30 9 -23 4 35 -7 95 -35 210 -89 370 -58
169 -72 268 -56 406 6 56 20 136 31 177 23 89 24 101 6 75 -53 -78 -91 -283
-82 -443 4 -62 3 -111 -1 -110 -4 1 -18 -2 -31 -6 -26 -9 -52 -57 -77 -141
-16 -55 -18 -58 -27 -35 -5 14 -8 44 -6 68 2 27 -1 42 -9 42 -14 0 -32 -51
-48 -144 l-12 -71 -25 79 c-39 128 -51 113 -46 -58 1 -80 2 -146 1 -146 -21 0
-60 34 -84 73 -37 60 -52 50 -44 -28 l5 -50 -17 33 c-16 32 -28 39 -36 25 -5
-9 8 -108 18 -138 l7 -20 -17 20 c-27 32 -53 99 -70 182 -18 88 -28 104 -49
83 -13 -13 -11 -27 9 -105 14 -49 24 -108 24 -130 l-1 -40 -8 33 c-5 22 -30
55 -74 98 -69 67 -75 66 -52 -10 12 -40 12 -45 1 -36 -18 15 -50 101 -59 156
-10 57 9 127 32 120 199 -54 285 -22 370 138 47 88 68 116 88 116 15 0 87 80
126 140 16 25 31 43 33 40 3 -3 16 12 29 34 l23 39 -34 104 c-18 57 -36 124
-40 148 -4 32 -9 42 -20 38 -7 -3 -13 -2 -12 3 1 5 1 23 0 41 -1 25 -5 31 -17
26 -13 -5 -15 1 -9 41 6 39 5 45 -8 40 -12 -4 -18 7 -26 53 -25 128 -44 169
-57 118 -5 -22 -10 -14 -33 52 -43 129 -120 224 -165 207 -8 -3 -23 -1 -33 5
-16 9 -16 10 5 11 13 0 20 4 17 10 -7 11 -138 12 -175 0 l-25 -7 25 -6 c14 -3
42 -9 63 -12 57 -9 41 -29 -26 -33 -32 -2 -57 -8 -57 -14 0 -16 -83 0 -97 19
-7 9 -16 13 -20 10 -4 -4 -1 -13 5 -19 7 -7 12 -16 12 -20 0 -17 -30 -7 -79
26 -28 19 -49 29 -48 23 3 -18 -58 -20 -91 -3 -20 10 -36 32 -51 68 -39 93
-42 98 -37 47 3 -25 14 -66 25 -92 22 -50 14 -63 -13 -22 -15 22 -46 135 -50
177 0 10 -22 31 -48 47 -65 41 -73 74 -27 113 130 110 301 181 439 183 78 1
90 4 150 38 70 39 162 67 221 67 57 0 68 8 104 79 33 65 50 80 145 132 14 8
92 36 174 64 l149 50 31 55 c17 30 40 88 53 130 l22 75 1 -55 c1 -81 15 -95
29 -29 20 94 107 239 176 291 18 14 17 9 -7 -41 -14 -31 -29 -69 -33 -85 -5
-24 6 -17 77 55 54 54 105 96 146 117 71 37 256 112 275 112 22 -1 -37 -40
-143 -95 -108 -56 -97 -64 22 -15 87 36 161 91 200 149 17 25 42 58 56 73 14
15 23 30 20 33 -2 3 -13 -4 -22 -14z m-974 -713 c-9 -32 -10 -31 -10 22 -1 46
1 52 10 33 8 -16 8 -32 0 -55z m-792 -1069 c21 -1 19 -2 -9 -9 -26 -6 -38 -4
-50 8 -15 14 -14 15 9 9 14 -4 36 -7 50 -8z m214 -13 c15 -9 26 -20 26 -24 0
-14 -55 -7 -80 11 -27 19 -65 23 -75 7 -4 -6 -13 -5 -25 2 -10 7 -17 15 -14
20 9 14 142 2 168 -16z m-276 -11 c2 -2 -7 -23 -20 -47 -19 -37 -22 -58 -23
-147 l0 -103 -25 53 c-20 45 -25 69 -25 147 0 50 -1 92 -3 92 -1 0 -7 -11 -12
-25 -10 -27 -50 -35 -50 -10 0 8 -5 15 -11 15 -7 0 -10 -12 -7 -30 3 -17 -1
-58 -7 -93 l-12 -62 -11 40 c-25 84 -10 151 35 160 15 3 39 12 53 19 18 9 37
10 70 3 25 -5 46 -11 48 -12z m551 -737 c-11 -15 -38 -43 -60 -61 -61 -50
-127 -142 -177 -250 l-45 -98 -28 27 c-15 14 -38 45 -50 69 l-23 43 42 65 c50
75 122 151 166 174 l31 16 -38 -42 c-53 -59 -37 -65 21 -9 66 63 122 98 154
96 l26 -2 -19 -28z m-410 -304 c16 -32 40 -74 52 -91 l21 -33 -28 -10 c-43
-17 -69 0 -88 56 -21 61 -31 170 -21 220 l8 39 12 -61 c7 -33 27 -87 44 -120z
m-127 -57 c28 -50 26 -57 -10 -31 -30 20 -49 59 -57 117 -12 77 4 92 24 21 9
-33 29 -81 43 -107z m62 -106 c4 -5 -3 -7 -14 -4 -23 6 -26 13 -6 13 8 0 17
-4 20 -9z"/>
<path d="M2190 3649 c-63 -12 -159 -63 -227 -120 -32 -27 -75 -62 -95 -78 -41
-31 -40 -41 4 -41 41 0 63 14 144 90 78 74 173 126 244 136 25 3 85 -1 135
-10 50 -9 101 -16 115 -15 l25 0 -25 10 c-80 33 -229 46 -320 28z"/>
<path d="M3016 3612 c-15 -18 -15 -20 4 -37 19 -17 21 -17 40 0 19 17 19 19 4
37 -10 10 -20 18 -24 18 -4 0 -14 -8 -24 -18z"/>
<path d="M1570 3613 c-8 -3 -39 -15 -68 -25 -29 -11 -52 -22 -50 -24 4 -3 139
44 147 52 6 5 -10 4 -29 -3z"/>
<path d="M1410 3550 c-8 -5 -10 -10 -5 -10 6 0 17 5 25 10 8 5 11 10 5 10 -5
0 -17 -5 -25 -10z"/>
<path d="M1215 3452 c-82 -43 -168 -90 -190 -104 -31 -19 -57 -26 -115 -30
-79 -5 -240 -61 -248 -85 -6 -20 36 -16 72 6 47 30 126 57 180 65 l50 6 -54
-48 c-39 -35 -52 -53 -47 -65 10 -25 23 -21 59 19 18 20 58 54 88 76 30 21 77
56 103 77 56 44 181 116 171 98 -4 -7 -13 -19 -21 -29 -13 -14 -12 -20 2 -41
10 -16 14 -34 10 -50 -6 -23 -10 -25 -32 -16 -32 12 -53 12 -53 -1 0 -5 9 -10
20 -10 10 0 44 -9 75 -21 51 -19 58 -19 74 -5 34 30 95 49 165 48 37 0 64 3
60 7 -9 8 -124 35 -199 47 -84 14 -97 45 -43 101 18 18 30 33 27 33 -2 0 -71
-35 -154 -78z m165 -120 c-56 -28 -90 -30 -90 -6 0 9 8 12 28 8 19 -4 32 -1
41 10 8 9 28 16 45 16 29 -1 28 -2 -24 -28z"/>
<path d="M3030 3495 c0 -28 -39 -93 -67 -113 -42 -29 -89 -37 -117 -18 -23 15
-24 14 -30 -18 -13 -70 -87 -111 -145 -81 l-31 15 36 -62 c20 -35 43 -73 50
-85 l14 -23 53 43 c29 23 77 53 107 66 46 20 66 23 139 19 100 -5 174 -33 238
-92 l40 -36 46 69 c45 68 46 69 16 54 -36 -18 -68 -11 -105 21 -22 18 -28 32
-28 65 -1 22 -2 41 -3 41 -1 0 -14 -5 -27 -12 -62 -28 -145 34 -162 120 -7 35
-24 54 -24 27z m20 -141 c11 -12 10 -18 -3 -32 -16 -15 -18 -15 -31 3 -10 14
-11 24 -4 32 14 17 23 16 38 -3z"/>
<path d="M2766 3454 c-8 -21 -8 -21 14 -27 20 -5 46 24 33 37 -12 12 -41 6
-47 -10z"/>
<path d="M3278 3442 c-10 -2 -18 -10 -18 -18 0 -19 28 -30 42 -16 14 14 -3 39
-24 34z"/>
<path d="M2587 3346 c-7 -17 1 -26 24 -26 17 0 32 23 22 34 -12 11 -41 6 -46
-8z"/>
<path d="M2060 3315 c-25 -13 -93 -34 -152 -46 -108 -22 -132 -39 -55 -39 l42
0 -51 -34 c-28 -19 -79 -65 -113 -103 -60 -66 -141 -189 -141 -214 0 -7 31 19
68 58 70 72 134 116 187 129 l30 7 -29 -34 c-45 -53 -103 -183 -121 -268 -33
-160 -37 -183 -32 -188 3 -3 22 26 41 63 19 38 44 80 56 94 l20 25 -17 -45
c-35 -92 -16 -491 26 -533 8 -8 7 4 -15 159 -27 193 -16 291 51 432 24 51 30
72 20 72 -22 0 -70 -46 -105 -100 -18 -28 -35 -49 -37 -46 -9 9 47 150 85 214
50 85 134 173 192 202 50 25 80 48 80 62 0 5 -9 4 -19 -2 -11 -5 -53 -17 -93
-25 -40 -9 -106 -31 -145 -50 -40 -19 -73 -30 -73 -25 0 4 37 41 83 82 62 56
93 77 130 86 50 13 113 48 136 76 18 22 5 19 -49 -9z"/>
<path d="M3438 3323 c-19 -5 -22 -12 -12 -36 7 -20 44 -9 44 14 0 21 -9 27
-32 22z"/>
<path d="M500 3211 c-21 -17 -59 -34 -92 -41 -76 -17 -140 -51 -158 -84 -14
-26 -14 -28 13 -52 41 -35 61 -31 82 16 22 48 72 95 112 105 17 4 39 22 55 46
15 21 27 39 25 39 -1 0 -18 -13 -37 -29z"/>
<path d="M1445 3223 c-79 -8 -273 -43 -315 -58 -22 -8 -44 -14 -48 -13 -13 3
-117 -31 -164 -54 -110 -53 -10 -48 130 6 157 60 348 100 557 115 l120 8 -120
0 c-66 0 -138 -2 -160 -4z"/>
<path d="M774 3175 c-10 -8 -33 -15 -50 -15 -31 0 -60 -21 -47 -33 12 -13 40
-7 66 13 14 11 34 20 45 20 11 0 25 7 32 15 10 12 9 15 -7 15 -10 0 -28 -7
-39 -15z"/>
<path d="M590 3099 c-43 -20 -44 -22 -23 -31 26 -12 73 12 73 37 0 18 4 19
-50 -6z"/>
<path d="M2353 3058 c-108 -24 -153 -152 -87 -247 20 -28 88 -60 127 -61 24 0
27 3 27 35 0 31 -2 35 -18 26 -47 -25 -101 52 -88 124 10 50 40 78 77 73 28
-4 30 -3 27 25 -4 36 -9 38 -65 25z"/>
<path d="M2910 3056 c15 -15 13 -279 -2 -294 -9 -9 2 -12 52 -12 50 0 61 3 52
12 -7 7 -12 41 -12 82 l0 71 68 -100 67 -100 2 55 c2 30 4 108 5 172 l3 117
-57 3 c-36 2 -54 0 -48 -7 6 -5 10 -29 10 -54 l0 -45 -35 50 c-30 41 -41 50
-75 55 -28 4 -37 2 -30 -5z"/>
<path d="M783 3050 c-30 -12 -29 -30 1 -30 25 0 51 22 39 33 -8 9 -12 8 -40
-3z"/>
<path d="M2448 3005 c3 -36 -1 -61 -10 -72 -10 -13 -10 -17 0 -20 16 -6 17
-134 0 -151 -9 -9 2 -12 51 -12 54 0 62 2 52 14 -7 9 -11 40 -9 78 3 60 4 63
31 66 l27 3 0 -68 c0 -40 -5 -74 -12 -81 -9 -9 2 -12 51 -12 54 0 62 2 52 14
-8 10 -11 58 -9 155 l3 141 -54 0 c-45 0 -52 -2 -42 -14 7 -8 11 -32 9 -53 -3
-33 -6 -38 -28 -38 -22 0 -25 5 -28 38 -2 21 2 45 9 53 10 12 3 14 -42 14
l-54 0 3 -55z"/>
<path d="M2718 3005 c3 -36 -1 -61 -10 -72 -10 -13 -10 -17 0 -20 16 -6 17
-134 0 -151 -9 -9 10 -12 85 -12 l97 0 0 29 c0 28 -1 29 -29 18 -47 -18 -61
-5 -61 58 0 54 1 55 28 55 16 0 37 9 47 20 18 20 17 20 -28 20 l-47 0 0 36 0
37 45 -5 c42 -5 45 -4 45 18 0 23 -2 24 -87 24 l-88 0 3 -55z"/>
<path d="M3178 3048 c17 -17 17 -269 0 -286 -9 -9 2 -12 52 -12 50 0 61 3 52
12 -7 7 -12 41 -12 82 l0 71 65 -100 65 -100 0 161 c0 111 4 164 12 172 9 9
-2 12 -52 12 -39 0 -60 -4 -52 -9 9 -5 12 -23 10 -51 l-3 -43 -35 51 c-32 48
-38 52 -74 52 -31 0 -37 -3 -28 -12z"/>
<path d="M3462 3048 c-7 -7 -12 -32 -12 -56 0 -24 -5 -52 -10 -63 -7 -13 -7
-19 0 -19 15 0 13 -147 -2 -153 -7 -3 19 -5 57 -5 39 0 64 2 58 5 -9 3 -13 29
-13 79 0 72 1 74 25 74 24 0 25 -2 25 -68 0 -40 -5 -73 -12 -80 -9 -9 2 -12
52 -12 50 0 61 3 52 12 -8 8 -12 56 -12 149 0 116 -2 138 -16 143 -29 11 -179
7 -192 -6z m128 -63 c0 -31 -3 -35 -25 -35 -22 0 -25 4 -25 35 0 31 3 35 25
35 22 0 25 -4 25 -35z"/>
<path d="M3718 2919 c2 -97 -1 -145 -9 -155 -10 -12 -2 -14 51 -14 53 0 61 2
51 14 -8 10 -11 58 -9 155 l3 141 -45 0 -45 0 3 -141z"/>
<path d="M485 3020 c-3 -5 1 -10 9 -10 8 0 18 5 21 10 3 6 -1 10 -9 10 -8 0
-18 -4 -21 -10z"/>
<path d="M697 3018 c-35 -13 -30 -32 10 -36 23 -2 32 2 36 17 6 25 -10 31 -46
19z"/>
<path d="M607 2963 c-12 -12 -7 -22 8 -17 8 4 15 10 15 15 0 11 -14 12 -23 2z"/>
<path d="M934 2950 c-5 -5 -22 -10 -38 -12 -24 -2 -27 -5 -15 -14 10 -8 24 -7
52 6 26 11 34 19 24 23 -8 3 -18 2 -23 -3z"/>
<path d="M792 2913 c-6 -2 -10 -9 -6 -14 8 -14 50 -11 64 6 11 13 8 15 -16 14
-16 0 -35 -3 -42 -6z"/>
<path d="M962 2893 c3 -14 13 -18 43 -16 94 5 383 -49 549 -101 108 -35 84
-17 -39 29 -176 65 -363 105 -496 105 -52 0 -60 -2 -57 -17z"/>
<path d="M1095 2763 c19 -20 35 -42 35 -50 0 -8 16 -34 35 -57 19 -23 65 -101
104 -174 38 -72 77 -142 86 -154 l17 -23 -7 25 c-18 64 -90 231 -128 299 -23
42 -46 85 -52 96 -13 25 -84 74 -108 75 -14 0 -10 -8 18 -37z"/>
<path d="M2085 2688 c-54 -30 -48 -71 50 -355 47 -135 85 -250 85 -255 0 -4
-30 -8 -67 -8 -48 0 -72 5 -85 17 -17 15 -18 13 -18 -50 l0 -67 150 0 c211 0
208 -14 80 352 -49 142 -90 262 -90 266 0 14 130 4 155 -12 l25 -16 0 70 0 70
-132 0 c-80 0 -141 -5 -153 -12z"/>
<path d="M2399 2671 c20 -28 21 -42 21 -355 l0 -326 25 -10 c14 -5 157 -11
319 -12 274 -3 293 -2 285 14 -5 9 -14 20 -19 23 -6 4 -10 73 -10 171 l0 165
25 -19 c20 -16 32 -18 53 -12 74 21 139 77 167 144 22 53 12 126 -23 168 -47
56 -99 71 -261 76 l-144 5 21 -31 c21 -29 22 -38 22 -342 0 -290 -1 -314 -19
-336 l-19 -24 -26 21 -26 20 0 318 c0 307 1 319 21 345 l20 26 -112 0 -112 0
21 -23 c22 -23 22 -29 22 -320 l0 -297 -45 0 -45 0 0 291 c0 278 1 292 21 320
l20 29 -111 0 -111 0 20 -29z m714 -101 c34 -27 44 -78 23 -118 -19 -37 -44
-52 -85 -52 l-31 0 0 95 0 95 34 0 c18 0 45 -9 59 -20z"/>
<path d="M3300 2681 c5 -11 15 -23 20 -26 6 -4 10 -54 10 -116 0 -97 -3 -115
-25 -159 l-25 -50 25 0 25 0 0 -157 c0 -147 -1 -158 -22 -180 l-21 -23 161 0
162 0 0 67 c0 63 -1 65 -18 50 -12 -11 -36 -17 -70 -17 l-52 0 0 130 0 130 49
0 c48 0 50 1 75 46 14 26 26 50 26 55 0 5 -34 9 -75 9 l-75 0 0 80 0 80 40 0
c23 0 54 -7 70 -15 l30 -16 0 66 0 65 -160 0 c-156 0 -160 -1 -150 -19z"/>
<path d="M3640 2693 c0 -6 7 -16 15 -23 13 -11 15 -61 15 -338 0 -289 -2 -327
-17 -344 -15 -17 -12 -18 92 -18 103 0 107 1 92 18 -13 14 -17 47 -19 175 -2
86 -2 157 -1 157 7 0 163 -321 163 -334 0 -11 20 -15 90 -18 l89 -3 -28 30
c-17 17 -57 97 -96 189 l-67 160 30 25 c89 75 98 196 20 268 -46 43 -95 55
-240 61 -90 3 -138 1 -138 -5z m259 -118 c77 -39 42 -175 -46 -175 l-33 0 0
95 0 95 25 0 c15 0 39 -7 54 -15z"/>
<path d="M1607 2614 c-3 -4 3 -24 14 -46 33 -64 57 -177 76 -355 17 -161 18
-165 25 -108 9 64 -5 259 -23 347 -19 88 -72 182 -92 162z"/>
<path d="M1637 2325 c16 -118 8 -343 -15 -430 -11 -44 -23 -91 -27 -105 -4
-17 1 -13 15 13 54 99 83 319 60 465 -15 101 -45 152 -33 57z"/>
<path d="M1882 1902 l-212 -2 35 -31 35 -31 0 -489 0 -490 -40 -54 -39 -53
208 101 c204 100 208 102 177 113 l-31 11 -3 94 c-2 52 0 137 3 189 l7 95 79
-155 c43 -85 78 -166 78 -179 1 -27 -13 -31 179 40 142 52 143 53 110 64 -30
10 -41 27 -130 200 -53 105 -97 195 -98 202 0 7 46 81 103 164 70 104 115 162
144 183 24 16 42 30 40 31 -1 1 -75 -1 -164 -3 -157 -4 -163 -5 -163 -25 0
-18 -164 -277 -176 -277 -2 0 -1 55 2 123 6 128 10 137 63 167 9 5 14 10 11
12 -3 2 -101 2 -218 0z"/>
<path d="M2560 1905 c0 -3 12 -16 26 -29 l27 -22 -12 -335 -12 -334 -32 -33
-31 -32 54 16 c30 9 111 31 179 48 124 32 125 32 92 45 l-32 14 6 221 c3 122
8 262 11 312 5 84 8 93 30 104 13 8 24 17 24 22 0 4 -74 8 -165 8 -91 0 -165
-2 -165 -5z"/>
<path d="M2944 1885 l29 -23 -6 -294 -7 -293 -31 -29 -32 -28 34 7 c19 4 95
18 169 30 126 21 133 23 108 35 l-28 13 0 151 c0 147 0 150 19 131 10 -11 80
-92 156 -180 76 -88 144 -161 152 -163 10 -3 12 53 6 309 l-6 312 29 24 29 23
-155 0 -155 -1 28 -23 c27 -22 28 -25 25 -109 -2 -48 -4 -87 -5 -87 -1 0 -45
50 -98 110 l-97 110 -96 0 -97 -1 29 -24z"/>
<path d="M3855 1903 c-126 -17 -238 -93 -281 -191 -27 -61 -23 -158 9 -224 66
-134 174 -191 468 -242 l36 -6 -5 115 c-5 109 -4 117 17 139 l22 23 -77 7
c-42 3 -90 6 -106 6 l-28 0 0 -75 0 -75 -37 15 c-85 36 -133 111 -133 210 0
72 24 130 69 168 31 25 39 27 130 27 71 0 102 -4 119 -16 l22 -15 0 70 0 71
-97 -1 c-54 -1 -111 -4 -128 -6z"/>
<path d="M4180 1903 c-30 -11 -50 -37 -50 -62 0 -15 25 -89 55 -164 56 -140
147 -398 143 -403 -8 -7 -131 34 -157 53 l-30 22 6 -57 c3 -31 8 -60 12 -63 3
-3 44 -16 91 -29 47 -13 113 -34 148 -48 34 -13 69 -22 77 -18 39 14 1 184
-114 517 -28 81 -51 150 -51 153 0 11 115 -6 131 -20 26 -23 30 -16 27 54 l-3
67 -135 2 c-74 1 -142 -1 -150 -4z"/>
</g>
</svg>
